<?xml version="1.0" encoding="UTF-8"?>
<!DOCTYPE svg PUBLIC "-//W3C//DTD SVG 1.1//EN" "http://www.w3.org/Graphics/SVG/1.1/DTD/svg11.dtd">
<!-- Creator: CorelDRAW X8 -->
<svg xmlns="http://www.w3.org/2000/svg" xml:space="preserve" width="96.551mm" height="53.593mm" version="1.1" style="shape-rendering:geometricPrecision; text-rendering:geometricPrecision; image-rendering:optimizeQuality; fill-rule:evenodd; clip-rule:evenodd"
viewBox="0 0 160 89"
 xmlns:xlink="http://www.w3.org/1999/xlink">
 <defs>
  <style type="text/css">
   <![CDATA[
    .fil0 {fill:#078866}
   ]]>
  </style>
 </defs>
 <g id="Слой_x0020_1">
  <metadata id="CorelCorpID_0Corel-Layer"/>
  <path class="fil0" d="M6 81c0,-1 1,-14 3,-15 2,-2 12,-3 15,-4 2,4 1,12 6,15 4,2 10,-1 10,-9l0 0c0,6 4,11 9,9 4,-1 6,-9 6,-13 1,-3 0,-1 7,-1 2,1 5,1 8,2 2,1 2,2 3,7l1 11 -68 0 0 -2zm-6 8l80 0c0,-6 -1,-23 -4,-27 -3,-4 -13,-4 -18,-5 -2,-1 -4,-2 -5,-3 -4,4 -4,15 -6,17 0,0 0,0 0,-1 -2,-4 -1,-13 -7,-13 -3,0 -5,3 -5,5 -1,4 -1,6 -2,9 0,0 0,0 0,0 -2,-2 -2,-10 -4,-13 0,0 0,-1 -1,-2l-1 -2c-1,1 -3,2 -5,3 -2,0 -4,0 -7,1 -3,0 -9,1 -11,4 -3,4 -4,21 -4,27z"/>
  <path class="fil0" d="M87 81l2 -14c1,-2 0,-1 1,-2 4,-2 11,-1 16,-3 5,7 24,8 30,0 4,2 11,1 15,3 2,1 2,4 2,7l1 11 -67 0 0 -2zm73 8c0,-6 0,-23 -3,-27 -2,-3 -8,-4 -11,-4 -12,-2 -8,-2 -13,-4l-2 3c0,2 -1,2 -2,3 -6,3 -16,2 -19,-2 0,-1 -1,-1 -1,-2 0,0 0,0 0,-1l-1 0c0,0 0,-1 0,-1 -4,1 -1,2 -12,4 -3,0 -9,1 -11,4 -4,4 -4,21 -4,27l79 0z"/>
  <path class="fil0" d="M24 21c0,-10 10,-17 21,-14 4,1 8,4 10,9 5,12 -7,38 -19,31 -10,-6 -11,-15 -12,-24 0,-1 0,-1 0,-2zm12 -20c-3,0 -5,0 -9,3 -10,7 -10,16 -8,27 2,12 13,26 25,23 15,-5 26,-37 11,-49 -6,-4 -12,-6 -19,-4z"/>
  <path class="fil0" d="M104 21c0,-5 3,-9 7,-12 10,-6 22,-1 25,7 4,12 -7,38 -20,31 -8,-5 -12,-17 -12,-26zm16 -21c-2,1 -5,0 -10,3 -11,6 -12,13 -11,25 0,6 3,13 7,17 17,21 33,3 36,-19 3,-14 -7,-26 -21,-26 -2,0 0,0 -1,0z"/>
 </g>
</svg>
